<svg width="12" height="13" viewBox="0 0 12 13" fill="none" xmlns="http://www.w3.org/2000/svg">
<path d="M2.79143 9.04163H9.20809M4.83309 7.29163V9.04163M9.20809 8.16663V9.91663M2.79143 8.16663V9.91663M2.79143 7.03642C2.46103 6.97048 2.14721 6.83895 1.86853 6.64963C1.58985 6.4603 1.35196 6.21701 1.16893 5.93415C0.985904 5.65129 0.861454 5.3346 0.802943 5.00281C0.744431 4.67101 0.753045 4.33086 0.828276 4.00245C0.903507 3.67405 1.04383 3.36406 1.24094 3.09083C1.43805 2.8176 1.68794 2.58666 1.97585 2.41168C2.26376 2.2367 2.58384 2.12123 2.91715 2.0721C3.25046 2.02297 3.59023 2.04117 3.91639 2.12563C4.15205 1.82645 4.45256 1.58468 4.79526 1.41856C5.13797 1.25244 5.51392 1.16629 5.89476 1.16663C6.28657 1.16629 6.67305 1.25745 7.02341 1.43285C7.37376 1.60826 7.67832 1.86306 7.9128 2.17696C8.23956 2.06611 8.5856 2.02355 8.92948 2.05191C9.27336 2.08027 9.60775 2.17894 9.91193 2.34182C10.2161 2.5047 10.4836 2.72832 10.6978 2.99881C10.9121 3.26929 11.0685 3.58089 11.1573 3.9143C11.2462 4.2477 11.2657 4.59581 11.2145 4.93704C11.1633 5.27827 11.0427 5.60536 10.8599 5.89804C10.6772 6.19072 10.4363 6.44276 10.1521 6.63852C9.86798 6.83429 9.54667 6.96962 9.20809 7.03613V11.6666C9.20809 11.8213 9.14664 11.9697 9.03724 12.0791C8.92784 12.1885 8.77947 12.25 8.62476 12.25H3.37476C3.22005 12.25 3.07168 12.1885 2.96228 12.0791C2.85289 11.9697 2.79143 11.8213 2.79143 11.6666V7.03642Z" stroke="white" stroke-width="1.16667" stroke-linecap="round" stroke-linejoin="round"/>
</svg>
