<svg width="47" height="47" viewBox="0 0 47 47" fill="none" xmlns="http://www.w3.org/2000/svg">
    <circle cx="23.5" cy="23.5" r="23.5" fill="white" fill-opacity="0.1" />
    <circle cx="23.6678" cy="23.6678" r="18.6321" fill="white" fill-opacity="0.125" />
    <path fill-rule="evenodd" clip-rule="evenodd"
        d="M23.5002 9.34424C15.6822 9.34424 9.34424 15.6822 9.34424 23.5002C9.34424 31.3181 15.6822 37.6561 23.5002 37.6561C31.3181 37.6561 37.6561 31.3181 37.6561 23.5002C37.6561 15.6822 31.3181 9.34424 23.5002 9.34424ZM29.6361 21.1065C29.7491 20.9774 29.8352 20.827 29.8891 20.6641C29.9431 20.5012 29.964 20.3291 29.9505 20.1581C29.937 19.987 29.8895 19.8204 29.8106 19.668C29.7318 19.5155 29.6233 19.3804 29.4914 19.2706C29.3596 19.1607 29.2071 19.0783 29.043 19.0283C28.8789 18.9782 28.7064 18.9615 28.5357 18.9791C28.365 18.9967 28.1995 19.0482 28.0491 19.1307C27.8986 19.2131 27.7661 19.3249 27.6595 19.4593L22.1258 26.0984L19.2624 23.2338C19.0197 22.9994 18.6946 22.8697 18.3572 22.8726C18.0198 22.8755 17.697 23.0109 17.4584 23.2495C17.2198 23.4881 17.0845 23.8109 17.0815 24.1483C17.0786 24.4857 17.2083 24.8108 17.4427 25.0535L21.3034 28.9142C21.4299 29.0406 21.5813 29.1392 21.748 29.2038C21.9146 29.2684 22.093 29.2976 22.2715 29.2895C22.4501 29.2814 22.6251 29.2362 22.7852 29.1567C22.9453 29.0772 23.0872 28.9653 23.2016 28.828L29.6361 21.1065Z"
        fill="white" />
</svg>