<svg width="47" height="47" viewBox="0 0 47 47" fill="none" xmlns="http://www.w3.org/2000/svg">
    <circle cx="23.5" cy="23.5" r="23.5" fill="white" fill-opacity="0.1" />
    <circle cx="23.668" cy="23.6679" r="18.6321" fill="white" fill-opacity="0.125" />
    <g clip-path="url(#clip0_1062_7991)">
        <path
            d="M38 23.5C38 27.3456 36.4723 31.0338 33.753 33.753C31.0338 36.4723 27.3456 38 23.5 38C19.6544 38 15.9662 36.4723 13.247 33.753C10.5277 31.0338 9 27.3456 9 23.5C9 19.6543 10.5277 15.9662 13.247 13.2469C15.9662 10.5277 19.6544 8.99998 23.5 8.99998C27.3456 8.99998 31.0338 10.5277 33.753 13.2469C36.4723 15.9662 38 19.6543 38 23.5ZM18.9615 19.9348H20.4568C20.7069 19.9348 20.9063 19.73 20.9389 19.4817C21.1021 18.2927 21.9177 17.4263 23.3713 17.4263C24.6147 17.4263 25.7529 18.048 25.7529 19.5433C25.7529 20.6942 25.0751 21.2235 24.0039 22.0282C22.7841 22.9145 21.818 23.9495 21.8869 25.6297L21.8923 26.023C21.8942 26.1419 21.9428 26.2553 22.0276 26.3387C22.1123 26.4221 22.2265 26.4689 22.3454 26.4689H23.8154C23.9356 26.4689 24.0508 26.4211 24.1358 26.3361C24.2208 26.2512 24.2685 26.1359 24.2685 26.0157V25.8254C24.2685 24.524 24.7633 24.1452 26.0991 23.132C27.2029 22.2929 28.3539 21.3612 28.3539 19.4055C28.3539 16.6669 26.0411 15.3437 23.5091 15.3437C21.2126 15.3437 18.6969 16.4131 18.5247 19.4871C18.5222 19.5456 18.5317 19.6041 18.5527 19.6588C18.5736 19.7135 18.6055 19.7634 18.6464 19.8053C18.6873 19.8472 18.7364 19.8803 18.7906 19.9026C18.8448 19.9249 18.9029 19.9358 18.9615 19.9348ZM23.1756 31.6127C24.2812 31.6127 25.0406 30.8986 25.0406 29.9325C25.0406 28.932 24.2794 28.2288 23.1756 28.2288C22.1171 28.2288 21.3467 28.932 21.3467 29.9325C21.3467 30.8986 22.1171 31.6127 23.1774 31.6127H23.1756Z"
            fill="white" />
    </g>
    <defs>
        <clipPath id="clip0_1062_7991">
            <rect width="29" height="29" fill="white" transform="translate(9 8.99998)" />
        </clipPath>
    </defs>
</svg>