<svg width="180" height="180" viewBox="0 0 180 180" fill="none" xmlns="http://www.w3.org/2000/svg">
    <g clip-path="url(#clip0_2629_8346)">
        <path d="M108.621 34.1378C106.907 34.1378 105.517 32.7483 105.517 31.0343V18.6205C105.517 16.9066 106.907 15.5171 108.621 15.5171C110.335 15.5171 111.724 16.9066 111.724 18.6205V31.0343C111.724 32.7483 110.335 34.1378 108.621 34.1378Z"
              fill="#95A5A5"/>
        <path d="M108.621 0H133.448C135.162 0 136.552 1.38946 136.552 3.10345V15.5172C136.552 17.2312 135.162 18.6207 133.448 18.6207H105.517V3.10345C105.517 1.38946 106.907 0 108.621 0Z"
              fill="#F0C419"/>
        <path d="M123.449 180H96.8959C94.9527 180.136 93.262 178.683 93.1035 176.741V114.828H127.241V176.741C127.083 178.683 125.392 180.136 123.449 180Z"
              fill="#A56A43"/>
        <path d="M108.621 170.69C106.907 170.69 105.517 169.3 105.517 167.586V117.931C105.517 116.217 106.907 114.828 108.621 114.828C110.335 114.828 111.724 116.217 111.724 117.931V167.586C111.724 169.3 110.335 170.69 108.621 170.69Z"
              fill="#805333"/>
        <path d="M89.9998 117.931H176.896C178.61 117.931 180 116.542 180 114.828V65.1724C180 46.3185 164.716 31.0344 145.862 31.0344H58.9653L89.9998 117.931Z"
              fill="#E64C3C"/>
        <path d="M164.483 86.8965H139.655C137.941 86.8965 136.552 88.2859 136.552 89.9999V102.414C136.552 104.128 137.941 105.517 139.655 105.517H164.483C166.197 105.517 167.586 104.128 167.586 102.414V89.9999C167.586 88.2859 166.197 86.8965 164.483 86.8965Z"
              fill="#ECF0F1"/>
        <path d="M24.9673 62.0689C26.572 44.49 41.3136 31.0335 58.9656 31.0344C77.8194 31.0344 93.1035 46.3185 93.1035 65.1724V114.828C93.1035 116.542 91.714 117.931 90 117.931H74.4828L24.9673 62.0689Z"
              fill="#802F34"/>
        <path d="M79.6655 64.8622C78.5175 63.1189 76.5701 62.0694 74.4828 62.0691H6.2069C2.77892 62.0691 0 64.848 0 68.276V111.724C0.0121866 113.443 0.730368 115.082 1.98621 116.255C3.11987 117.344 4.635 117.946 6.2069 117.931H74.4828C76.0547 117.946 77.5698 117.344 78.7035 116.255C79.9593 115.082 80.6775 113.443 80.6897 111.724V68.276C80.6894 67.0624 80.3333 65.8755 79.6655 64.8622Z"
              fill="#F3D55B"/>
        <path d="M31.8724 90.9621L1.98621 116.255C0.730368 115.081 0.0121866 113.443 0 111.724V68.2759C0.000303393 67.0623 0.356365 65.8754 1.02414 64.8621L31.8724 90.9621Z"
              fill="#F0C419"/>
        <path d="M78.7031 116.255C77.5694 117.344 76.0543 117.946 74.4824 117.931H6.20653C4.63463 117.946 3.1195 117.344 1.98584 116.255L31.872 90.9619L36.341 94.7481C38.6532 96.6997 42.0357 96.6997 44.3479 94.7481L48.8169 90.9619L78.7031 116.255Z"
              fill="#F29C1F"/>
        <path d="M80.6898 68.2759V111.724C80.6776 113.443 79.9594 115.081 78.7036 116.255L48.8174 90.9621L79.6657 64.8621C80.3334 65.8754 80.6895 67.0623 80.6898 68.2759Z"
              fill="#F0C419"/>
        <path d="M49.6553 77.5863H31.0346C29.3206 77.5863 27.9312 76.1968 27.9312 74.4828C27.9312 72.7689 29.3206 71.3794 31.0346 71.3794H49.6553C51.3693 71.3794 52.7587 72.7689 52.7587 74.4828C52.7587 76.1968 51.3693 77.5863 49.6553 77.5863Z"
              fill="#ECF0F1"/>
    </g>
    <defs>
        <clipPath id="clip0_2629_8346">
            <rect width="180" height="180" fill="white"/>
        </clipPath>
    </defs>
</svg>
