<svg width="105" height="105" viewBox="0 0 105 105" fill="none" xmlns="http://www.w3.org/2000/svg">
    <path fill-rule="evenodd" clip-rule="evenodd"
          d="M52.5 0C23.5057 0 0 23.5057 0 52.5C0 81.4943 23.5057 105 52.5 105C81.4943 105 105 81.4943 105 52.5C105 23.5057 81.4943 0 52.5 0ZM75.2564 43.6227C75.6754 43.1437 75.9944 42.5858 76.1946 41.9817C76.3948 41.3776 76.4722 40.7396 76.4222 40.1052C76.3722 39.4707 76.1958 38.8527 75.9034 38.2874C75.611 37.7222 75.2086 37.2211 74.7197 36.8137C74.2308 36.4063 73.6653 36.1007 73.0566 35.9151C72.4479 35.7294 71.8082 35.6674 71.1751 35.7326C70.5421 35.7978 69.9285 35.989 69.3704 36.2948C68.8123 36.6007 68.321 37.0151 67.9255 37.5136L47.4027 62.1361L36.7834 51.5121C35.8833 50.6427 34.6777 50.1616 33.4263 50.1725C32.1749 50.1833 30.9778 50.6853 30.0929 51.5702C29.208 52.4551 28.7061 53.6521 28.6952 54.9035C28.6843 56.1549 29.1654 57.3605 30.0348 58.2607L44.353 72.5789C44.8219 73.0475 45.3834 73.4134 46.0015 73.653C46.6197 73.8927 47.281 74.0009 47.9433 73.9708C48.6056 73.9407 49.2544 73.773 49.8483 73.4783C50.4422 73.1836 50.9682 72.7683 51.3927 72.2591L75.2564 43.6227Z"
          fill="#5FAF67"/>
</svg>
